<?xml version="1.0" standalone="no"?>
<!DOCTYPE svg PUBLIC "-//W3C//DTD SVG 20010904//EN"
 "http://www.w3.org/TR/2001/REC-SVG-20010904/DTD/svg10.dtd">
<svg version="1.0" xmlns="http://www.w3.org/2000/svg"
 width="512.000000pt" height="512.000000pt" viewBox="0 0 512.000000 512.000000"
 preserveAspectRatio="xMidYMid meet">
<g transform="translate(0.000000,512.000000) scale(0.100000,-0.100000)"
fill="#3978FC" stroke="none">
<path d="M2330 4689 c-536 -54 -1019 -318 -1345 -734 -207 -265 -345 -587
-401 -935 -24 -151 -24 -449 0 -600 85 -528 357 -992 765 -1305 265 -204 587
-339 935 -391 151 -23 449 -23 600 0 528 85 992 357 1305 765 204 265 339
587 391 935 23 151 23 449 0 600 -85 528 -357 992 -765 1305 -265 204 -587
339 -935 391 -119 18 -431 26 -550 14z m525 -514 c480 -75 883 -341 1135 -749
107 -173 177 -358 217 -571 24 -129 24 -391 0 -520 -75 -480 -341 -883 -749
-1135 -173 -107 -358 -177 -571 -217 -129 -24 -391 -24 -520 0 -480 75 -883
341 -1135 749 -107 173 -177 358 -217 571 -24 129 -24 391 0 520 75 480 341
883 749 1135 173 107 358 177 571 217 116 22 404 22 520 0z"/>
<path d="M2260 3860 l0 -310 -310 0 -310 0 0 -190 0 -190 310 0 310 0 0 -310
0 -310 190 0 190 0 0 310 0 310 310 0 310 0 0 190 0 190 -310 0 -310 0 0 310
0 310 -190 0 -190 0 0 -310z"/>
</g>
</svg>
